# xmcd CD database file
#
# Track frame offsets:
#	150
#	18136
#	34928
#	52815
#	67539
#	84575
#	104910
#	122700
#	136265
#	151875
#
# Disc length: 2250 seconds
#
# Revision: 0
# Processed by: cddbd v1.4PL0 Copyright (c) Steve Scherf et al.
# Submitted via: CDex 1.40Beta8
#
DISCID=7508c80a
DTITLE=Owen Temple - General Store
DYEAR=1997
DGENRE=Country
TTITLE0=When I Hit San Antone
TTITLE1=Me And Maria
TTITLE2=Tennessee Highway
TTITLE3=Dry Creek
TTITLE4=Jaded Lover
TTITLE5=The Wanna Wanna Bar
TTITLE6=Mary
TTITLE7=You Never Can Tell
TTITLE8=James' Blues
TTITLE9=If You Called
EXTD=YEAR: 1997 ID3G: 2
EXTT0=
EXTT1=
EXTT2=
EXTT3=
EXTT4=
EXTT5=
EXTT6=
EXTT7=
EXTT8=
EXTT9=
PLAYORDER=
